<?xml version="1.0" standalone="no"?>
<!DOCTYPE svg PUBLIC "-//W3C//DTD SVG 20010904//EN"
 "http://www.w3.org/TR/2001/REC-SVG-20010904/DTD/svg10.dtd">
<svg version="1.0" xmlns="http://www.w3.org/2000/svg"
 width="270.000000pt" height="270.000000pt" viewBox="0 0 270.000000 270.000000"
 preserveAspectRatio="xMidYMid meet">

<g transform="translate(0.000000,270.000000) scale(0.100000,-0.100000)"
fill="#000000" stroke="none">
<path d="M0 1350 l0 -1350 1350 0 1350 0 0 1350 0 1350 -1350 0 -1350 0 0
-1350z m1501 699 c218 -63 364 -279 346 -512 -5 -65 -43 -195 -53 -184 -3 2 0
16 6 31 5 15 6 25 1 22 -5 -4 -11 -3 -14 1 -2 5 -2 3 -1 -4 2 -6 -3 -16 -9
-22 -10 -7 -13 -3 -12 17 0 21 -8 31 -37 47 -58 31 -45 65 24 65 l38 0 0 44
c0 46 -11 56 -66 56 -19 0 -34 17 -34 39 0 5 18 16 40 26 45 20 46 22 26 70
l-15 35 -42 -15 c-31 -11 -45 -12 -55 -4 -20 16 -18 27 12 66 l26 35 -28 29
c-15 16 -32 29 -38 29 -5 0 -25 -14 -43 -31 -31 -31 -33 -32 -58 -15 -23 15
-25 21 -19 65 l6 48 -42 11 c-42 10 -42 10 -56 -24 -8 -18 -14 -38 -14 -44 0
-5 -3 -10 -7 -11 -5 0 -18 -2 -29 -5 -26 -4 -37 8 -54 59 -9 29 -16 37 -29 32
-9 -4 -29 -9 -44 -12 -27 -5 -28 -8 -22 -40 3 -19 9 -41 11 -48 4 -8 -7 -20
-25 -29 -29 -16 -31 -15 -66 16 l-36 31 -31 -31 -31 -31 27 -35 c22 -29 25
-39 16 -56 -13 -24 -8 -23 -60 -5 -24 8 -44 14 -46 13 -1 -2 -9 -20 -17 -40
l-16 -38 39 -22 c50 -29 57 -68 13 -68 -62 0 -73 -9 -73 -56 0 -43 0 -44 34
-44 77 0 89 -32 26 -68 l-40 -23 15 -37 c8 -20 9 -29 2 -19 -7 10 -18 26 -25
35 -11 15 -12 14 -3 -5 14 -28 14 -30 -4 -30 -10 0 -22 23 -36 69 -17 56 -21
88 -17 171 3 93 7 109 41 180 68 144 204 251 356 282 77 16 151 11 242 -16z
m-163 -220 c-2 -17 -14 -25 -49 -34 -189 -47 -240 -296 -88 -430 43 -37 39
-39 -11 -5 -14 10 -30 16 -35 14 -13 -5 -61 74 -74 123 -44 159 79 331 252
352 5 1 7 -9 5 -20z m128 -9 c173 -74 222 -312 91 -448 -18 -19 -44 -40 -59
-48 -41 -21 -34 -10 8 15 20 12 34 24 31 28 -4 3 -19 -2 -34 -12 -18 -12 -11
-2 19 28 132 133 83 348 -94 408 -39 13 -54 23 -56 39 -3 18 0 20 25 14 15 -3
46 -14 69 -24z m-50 -169 c17 -11 36 -33 42 -50 10 -29 9 -31 -12 -31 -14 0
-27 9 -34 24 -21 46 -97 43 -122 -4 -13 -24 -50 -27 -50 -4 0 9 15 31 34 50
40 40 92 46 142 15z m-116 -141 c15 -16 38 -30 50 -30 12 0 35 14 52 30 50 50
81 32 38 -23 -47 -60 -141 -56 -180 7 -24 40 -25 46 -4 46 9 0 29 -13 44 -30z
m-236 -156 c6 -16 -12 -60 -21 -50 -3 3 0 12 7 21 20 24 4 30 -43 18 -56 -15
-59 -9 -5 10 55 20 55 20 62 1z m674 -19 c-6 -6 -88 19 -88 26 0 4 20 1 46 -8
25 -8 44 -17 42 -18z m42 -15 c-6 -11 -13 -20 -16 -20 -2 0 0 9 6 20 6 11 13
20 16 20 2 0 0 -9 -6 -20z m-363 -6 c-3 -3 -12 -4 -19 -1 -8 3 -5 6 6 6 11 1
17 -2 13 -5z m-243 -52 c3 -5 -1 -9 -9 -9 -8 0 -12 4 -9 9 3 4 7 8 9 8 2 0 6
-4 9 -8z m34 -37 c-3 -3 -9 2 -12 12 -6 14 -5 15 5 6 7 -7 10 -15 7 -18z m442
1 c0 -2 -8 -10 -17 -17 -16 -13 -17 -12 -4 4 13 16 21 21 21 13z m-277 -23
c-7 -2 -21 -2 -30 0 -10 3 -4 5 12 5 17 0 24 -2 18 -5z m-9 -247 c44 -18 51
-32 25 -46 -15 -9 -24 -9 -32 -1 -17 17 -62 13 -81 -8 -42 -46 9 -114 68 -91
34 13 33 27 -1 26 -22 -1 -29 4 -31 22 -3 21 0 22 57 22 59 0 61 -1 61 -26 0
-41 -59 -94 -104 -94 -44 0 -91 22 -106 49 -15 29 -12 84 6 110 16 22 66 50
92 51 7 0 28 -6 46 -14z m-599 -46 c20 -27 40 -50 43 -50 4 0 23 23 42 50 19
27 43 50 53 50 15 0 17 -11 17 -101 0 -98 -1 -100 -22 -97 -20 3 -22 9 -21 53
l1 50 -29 -35 c-16 -19 -29 -38 -29 -42 0 -19 -21 -5 -49 34 l-31 42 0 -52 c0
-49 -2 -52 -25 -52 l-25 0 0 100 c0 92 2 100 19 100 12 0 34 -20 56 -50z m370
-40 c25 -49 45 -94 45 -100 0 -19 -48 -11 -55 10 -5 16 -15 20 -46 20 -28 0
-42 -6 -51 -20 -12 -19 -58 -29 -58 -12 0 4 19 49 42 100 30 65 48 92 60 92
12 0 32 -28 63 -90z m500 -6 c25 -53 45 -98 45 -100 0 -2 -11 -4 -25 -4 -14 0
-29 8 -35 20 -8 15 -21 20 -48 20 -26 0 -41 -6 -50 -20 -11 -19 -68 -30 -60
-12 2 5 23 50 47 100 59 122 68 122 126 -4z m230 71 c30 -29 32 -64 5 -92 -19
-21 -19 -21 0 -46 26 -32 25 -37 -4 -37 -16 0 -32 11 -46 30 -25 35 -43 35
-50 0 -3 -16 -13 -26 -28 -28 -22 -3 -22 -1 -22 97 l0 101 60 0 c51 0 65 -4
85 -25z m135 -75 l0 -100 -25 0 -25 0 0 100 0 100 25 0 25 0 0 -100z m-940
-165 c17 -21 8 -50 -18 -53 -12 -2 -22 -8 -22 -13 0 -5 -4 -9 -10 -9 -5 0 -10
20 -10 45 0 41 2 45 24 45 13 0 29 -7 36 -15z m161 -32 l17 -40 -44 1 c-24 1
-44 4 -44 8 0 18 35 78 44 75 5 -2 17 -21 27 -44z m163 31 c12 -12 13 -20 6
-35 -6 -11 -8 -24 -5 -29 9 -14 -9 -12 -24 3 -11 10 -14 10 -18 0 -10 -28 -23
-10 -23 32 0 41 2 45 24 45 14 0 32 -7 40 -16z m166 6 c0 -5 -4 -10 -10 -10
-5 0 -10 -16 -10 -35 0 -19 -4 -35 -10 -35 -5 0 -10 14 -10 30 0 18 -6 33 -15
36 -27 11 -16 24 20 24 19 0 35 -4 35 -10z m142 -5 c-2 -5 -10 -9 -18 -7 -8 2
-14 -2 -14 -8 0 -5 9 -10 20 -10 11 0 20 -2 20 -4 0 -2 3 -11 6 -19 8 -23 -30
-41 -56 -27 -26 14 -17 30 13 23 19 -4 18 -2 -5 12 -31 17 -34 25 -16 43 15
15 55 12 50 -3z"/>
<path d="M1546 1395 c-9 -26 -7 -32 5 -12 6 10 9 21 6 23 -2 3 -7 -2 -11 -11z"/>
<path d="M1066 865 c-9 -23 -8 -25 9 -25 17 0 19 9 6 28 -7 11 -10 10 -15 -3z"/>
<path d="M1560 860 c-9 -17 -8 -20 9 -20 14 0 18 5 14 20 -3 11 -7 20 -9 20
-2 0 -8 -9 -14 -20z"/>
<path d="M1770 890 c0 -26 3 -30 29 -30 32 0 48 24 30 46 -6 8 -22 14 -35 14
-20 0 -24 -5 -24 -30z"/>
<path d="M1020 676 c0 -9 7 -16 16 -16 17 0 14 22 -4 28 -7 2 -12 -3 -12 -12z"/>
<path d="M1180 660 c0 -5 5 -10 10 -10 6 0 10 5 10 10 0 6 -4 10 -10 10 -5 0
-10 -4 -10 -10z"/>
<path d="M1340 675 c0 -8 7 -15 15 -15 8 0 15 7 15 15 0 8 -7 15 -15 15 -8 0
-15 -7 -15 -15z"/>
</g>
</svg>
